<svg xmlns="http://www.w3.org/2000/svg" viewBox="-10 -10 460 120" width="460" height="120">
    
  <!-- B -->
  <g transform="translate(0,0)">
    <path d="M0,0 H46 C64,0 76,10 76,27 C76,40 68,47 60,50 C70,53 80,61 80,76 C80,92 66,100 48,100 H0 Z
             M18,18 V44 H44 C54,44 60,39 60,31 C60,22 54,18 44,18 Z
             M18,58 V82 H46 C58,82 64,76 64,70 C64,63 58,58 46,58 Z" fill="#1A2A4B" fill-rule="evenodd"/>
  </g>
  <!-- O -->
  <g transform="translate(96,0)">
    <path d="M43,-3 C68,-3 86,17 86,50 C86,83 68,103 43,103 C18,103 0,83 0,50 C0,17 18,-3 43,-3 Z
             M43,15 C27,15 17,29 17,50 C17,71 27,85 43,85 C59,85 69,71 69,50 C69,29 59,15 43,15 Z" fill="#1A2A4B" fill-rule="evenodd"/>
  </g>
  <!-- S -->
  <g transform="translate(198,0)">
    <path d="M68,28 C64,17 54,13 41,13 C28,13 19,19 19,28 C19,38 30,41 45,44 C66,48 79,55 79,74 C79,92 62,103 40,103 C20,103 4,94 0,74 L17,70 C20,83 29,88 41,88 C55,88 62,82 62,74 C62,64 51,60 36,57 C16,53 2,46 2,29 C2,11 19,-2 41,-2 C60,-2 76,7 82,24 Z" fill="#1A2A4B"/>
  </g>
  <!-- L -->
  <g transform="translate(292,0)">
    <path d="M0,0 H18 V82 H62 V100 H0 Z" fill="#1A2A4B"/>
  </g>
  <!-- A (stylized as compass-peak triangle, outline navy + small solid green apex) -->
  <g transform="translate(370,0)">
    <path d="M35,-3 L74,100 H57 L48,76 H21 L12,100 H-5 Z M34.5,20 L24,60 H45 Z" fill="#1A2A4B" fill-rule="evenodd"/>
    <polygon points="35,44 43,66 27,66" fill="#759E7B"/>
  </g>
  
  </svg>