<svg xmlns="http://www.w3.org/2000/svg" viewBox="0 0 240 240" width="240" height="240">
  
  <circle cx="120" cy="120" r="85" fill="none" stroke="#1A2A4B" stroke-width="7"/>
  <line x1="161.50" y1="48.12" x2="156.50" y2="56.78" stroke="#759E7B" stroke-width="3.2" stroke-linecap="round"/>
<line x1="191.88" y1="78.50" x2="183.22" y2="83.50" stroke="#759E7B" stroke-width="3.2" stroke-linecap="round"/>
<line x1="191.88" y1="161.50" x2="183.22" y2="156.50" stroke="#759E7B" stroke-width="3.2" stroke-linecap="round"/>
<line x1="161.50" y1="191.88" x2="156.50" y2="183.22" stroke="#759E7B" stroke-width="3.2" stroke-linecap="round"/>
<line x1="78.50" y1="191.88" x2="83.50" y2="183.22" stroke="#759E7B" stroke-width="3.2" stroke-linecap="round"/>
<line x1="48.12" y1="161.50" x2="56.78" y2="156.50" stroke="#759E7B" stroke-width="3.2" stroke-linecap="round"/>
<line x1="48.12" y1="78.50" x2="56.78" y2="83.50" stroke="#759E7B" stroke-width="3.2" stroke-linecap="round"/>
<line x1="78.50" y1="48.12" x2="83.50" y2="56.78" stroke="#759E7B" stroke-width="3.2" stroke-linecap="round"/>
<circle cx="130.31" cy="41.68" r="1.6" fill="#759E7B"/>
<circle cx="140.45" cy="43.69" r="1.6" fill="#759E7B"/>
<circle cx="150.23" cy="47.01" r="1.6" fill="#759E7B"/>
<circle cx="168.09" cy="57.33" r="1.6" fill="#759E7B"/>
<circle cx="175.86" cy="64.14" r="1.6" fill="#759E7B"/>
<circle cx="182.67" cy="71.91" r="1.6" fill="#759E7B"/>
<circle cx="192.99" cy="89.77" r="1.6" fill="#759E7B"/>
<circle cx="196.31" cy="99.55" r="1.6" fill="#759E7B"/>
<circle cx="198.32" cy="109.69" r="1.6" fill="#759E7B"/>
<circle cx="198.32" cy="130.31" r="1.6" fill="#759E7B"/>
<circle cx="196.31" cy="140.45" r="1.6" fill="#759E7B"/>
<circle cx="192.99" cy="150.23" r="1.6" fill="#759E7B"/>
<circle cx="182.67" cy="168.09" r="1.6" fill="#759E7B"/>
<circle cx="175.86" cy="175.86" r="1.6" fill="#759E7B"/>
<circle cx="168.09" cy="182.67" r="1.6" fill="#759E7B"/>
<circle cx="150.23" cy="192.99" r="1.6" fill="#759E7B"/>
<circle cx="140.45" cy="196.31" r="1.6" fill="#759E7B"/>
<circle cx="130.31" cy="198.32" r="1.6" fill="#759E7B"/>
<circle cx="109.69" cy="198.32" r="1.6" fill="#759E7B"/>
<circle cx="99.55" cy="196.31" r="1.6" fill="#759E7B"/>
<circle cx="89.77" cy="192.99" r="1.6" fill="#759E7B"/>
<circle cx="71.91" cy="182.67" r="1.6" fill="#759E7B"/>
<circle cx="64.14" cy="175.86" r="1.6" fill="#759E7B"/>
<circle cx="57.33" cy="168.09" r="1.6" fill="#759E7B"/>
<circle cx="47.01" cy="150.23" r="1.6" fill="#759E7B"/>
<circle cx="43.69" cy="140.45" r="1.6" fill="#759E7B"/>
<circle cx="41.68" cy="130.31" r="1.6" fill="#759E7B"/>
<circle cx="41.68" cy="109.69" r="1.6" fill="#759E7B"/>
<circle cx="43.69" cy="99.55" r="1.6" fill="#759E7B"/>
<circle cx="47.01" cy="89.77" r="1.6" fill="#759E7B"/>
<circle cx="57.33" cy="71.91" r="1.6" fill="#759E7B"/>
<circle cx="64.14" cy="64.14" r="1.6" fill="#759E7B"/>
<circle cx="71.91" cy="57.33" r="1.6" fill="#759E7B"/>
<circle cx="89.77" cy="47.01" r="1.6" fill="#759E7B"/>
<circle cx="99.55" cy="43.69" r="1.6" fill="#759E7B"/>
<circle cx="109.69" cy="41.68" r="1.6" fill="#759E7B"/>

  <polygon points="120.00,9.00 115.14,33.14 124.86,33.14" fill="#1A2A4B"/>
<polygon points="205.91,116.10 205.91,123.90 220.90,124.58 220.90,115.42" fill="#1A2A4B"/>
<polygon points="120.00,231.00 124.86,206.86 115.14,206.86" fill="#1A2A4B"/>
<polygon points="34.09,123.90 34.09,116.10 19.10,115.42 19.10,124.58" fill="#1A2A4B"/>
  
    <polygon points="161.01,78.99 112.22,112.22 120,120 127.78,127.78" fill="#759E7B"/>
    <polygon points="78.99,161.01 127.78,127.78 120,120 112.22,112.22" fill="#1A2A4B"/>
    <circle cx="120" cy="120" r="9" fill="#FFFFFF" stroke="#1A2A4B" stroke-width="3"/>
  
</svg>