<svg xmlns="http://www.w3.org/2000/svg" viewBox="0 0 900 640" width="900" height="640">
  
  <g transform="translate(312.0,20) scale(1.15)">
    
  
  <circle cx="120" cy="120" r="85" fill="none" stroke="#1A2A4B" stroke-width="7"/>
  <line x1="161.50" y1="48.12" x2="156.50" y2="56.78" stroke="#759E7B" stroke-width="3.2" stroke-linecap="round"/>
<line x1="191.88" y1="78.50" x2="183.22" y2="83.50" stroke="#759E7B" stroke-width="3.2" stroke-linecap="round"/>
<line x1="191.88" y1="161.50" x2="183.22" y2="156.50" stroke="#759E7B" stroke-width="3.2" stroke-linecap="round"/>
<line x1="161.50" y1="191.88" x2="156.50" y2="183.22" stroke="#759E7B" stroke-width="3.2" stroke-linecap="round"/>
<line x1="78.50" y1="191.88" x2="83.50" y2="183.22" stroke="#759E7B" stroke-width="3.2" stroke-linecap="round"/>
<line x1="48.12" y1="161.50" x2="56.78" y2="156.50" stroke="#759E7B" stroke-width="3.2" stroke-linecap="round"/>
<line x1="48.12" y1="78.50" x2="56.78" y2="83.50" stroke="#759E7B" stroke-width="3.2" stroke-linecap="round"/>
<line x1="78.50" y1="48.12" x2="83.50" y2="56.78" stroke="#759E7B" stroke-width="3.2" stroke-linecap="round"/>
<circle cx="130.31" cy="41.68" r="1.6" fill="#759E7B"/>
<circle cx="140.45" cy="43.69" r="1.6" fill="#759E7B"/>
<circle cx="150.23" cy="47.01" r="1.6" fill="#759E7B"/>
<circle cx="168.09" cy="57.33" r="1.6" fill="#759E7B"/>
<circle cx="175.86" cy="64.14" r="1.6" fill="#759E7B"/>
<circle cx="182.67" cy="71.91" r="1.6" fill="#759E7B"/>
<circle cx="192.99" cy="89.77" r="1.6" fill="#759E7B"/>
<circle cx="196.31" cy="99.55" r="1.6" fill="#759E7B"/>
<circle cx="198.32" cy="109.69" r="1.6" fill="#759E7B"/>
<circle cx="198.32" cy="130.31" r="1.6" fill="#759E7B"/>
<circle cx="196.31" cy="140.45" r="1.6" fill="#759E7B"/>
<circle cx="192.99" cy="150.23" r="1.6" fill="#759E7B"/>
<circle cx="182.67" cy="168.09" r="1.6" fill="#759E7B"/>
<circle cx="175.86" cy="175.86" r="1.6" fill="#759E7B"/>
<circle cx="168.09" cy="182.67" r="1.6" fill="#759E7B"/>
<circle cx="150.23" cy="192.99" r="1.6" fill="#759E7B"/>
<circle cx="140.45" cy="196.31" r="1.6" fill="#759E7B"/>
<circle cx="130.31" cy="198.32" r="1.6" fill="#759E7B"/>
<circle cx="109.69" cy="198.32" r="1.6" fill="#759E7B"/>
<circle cx="99.55" cy="196.31" r="1.6" fill="#759E7B"/>
<circle cx="89.77" cy="192.99" r="1.6" fill="#759E7B"/>
<circle cx="71.91" cy="182.67" r="1.6" fill="#759E7B"/>
<circle cx="64.14" cy="175.86" r="1.6" fill="#759E7B"/>
<circle cx="57.33" cy="168.09" r="1.6" fill="#759E7B"/>
<circle cx="47.01" cy="150.23" r="1.6" fill="#759E7B"/>
<circle cx="43.69" cy="140.45" r="1.6" fill="#759E7B"/>
<circle cx="41.68" cy="130.31" r="1.6" fill="#759E7B"/>
<circle cx="41.68" cy="109.69" r="1.6" fill="#759E7B"/>
<circle cx="43.69" cy="99.55" r="1.6" fill="#759E7B"/>
<circle cx="47.01" cy="89.77" r="1.6" fill="#759E7B"/>
<circle cx="57.33" cy="71.91" r="1.6" fill="#759E7B"/>
<circle cx="64.14" cy="64.14" r="1.6" fill="#759E7B"/>
<circle cx="71.91" cy="57.33" r="1.6" fill="#759E7B"/>
<circle cx="89.77" cy="47.01" r="1.6" fill="#759E7B"/>
<circle cx="99.55" cy="43.69" r="1.6" fill="#759E7B"/>
<circle cx="109.69" cy="41.68" r="1.6" fill="#759E7B"/>

  <polygon points="120.00,9.00 115.14,33.14 124.86,33.14" fill="#1A2A4B"/>
<polygon points="205.91,116.10 205.91,123.90 220.90,124.58 220.90,115.42" fill="#1A2A4B"/>
<polygon points="120.00,231.00 124.86,206.86 115.14,206.86" fill="#1A2A4B"/>
<polygon points="34.09,123.90 34.09,116.10 19.10,115.42 19.10,124.58" fill="#1A2A4B"/>
  
    <polygon points="161.01,78.99 112.22,112.22 120,120 127.78,127.78" fill="#759E7B"/>
    <polygon points="78.99,161.01 127.78,127.78 120,120 112.22,112.22" fill="#1A2A4B"/>
    <circle cx="120" cy="120" r="9" fill="#FFFFFF" stroke="#1A2A4B" stroke-width="3"/>
  

  </g>
  <g transform="translate(139.5,351.0) scale(1.35)">
    
  <!-- B -->
  <g transform="translate(0,0)">
    <path d="M0,0 H46 C64,0 76,10 76,27 C76,40 68,47 60,50 C70,53 80,61 80,76 C80,92 66,100 48,100 H0 Z
             M18,18 V44 H44 C54,44 60,39 60,31 C60,22 54,18 44,18 Z
             M18,58 V82 H46 C58,82 64,76 64,70 C64,63 58,58 46,58 Z" fill="#1A2A4B" fill-rule="evenodd"/>
  </g>
  <!-- O -->
  <g transform="translate(96,0)">
    <path d="M43,-3 C68,-3 86,17 86,50 C86,83 68,103 43,103 C18,103 0,83 0,50 C0,17 18,-3 43,-3 Z
             M43,15 C27,15 17,29 17,50 C17,71 27,85 43,85 C59,85 69,71 69,50 C69,29 59,15 43,15 Z" fill="#1A2A4B" fill-rule="evenodd"/>
  </g>
  <!-- S -->
  <g transform="translate(198,0)">
    <path d="M68,28 C64,17 54,13 41,13 C28,13 19,19 19,28 C19,38 30,41 45,44 C66,48 79,55 79,74 C79,92 62,103 40,103 C20,103 4,94 0,74 L17,70 C20,83 29,88 41,88 C55,88 62,82 62,74 C62,64 51,60 36,57 C16,53 2,46 2,29 C2,11 19,-2 41,-2 C60,-2 76,7 82,24 Z" fill="#1A2A4B"/>
  </g>
  <!-- L -->
  <g transform="translate(292,0)">
    <path d="M0,0 H18 V82 H62 V100 H0 Z" fill="#1A2A4B"/>
  </g>
  <!-- A (stylized as compass-peak triangle, outline navy + small solid green apex) -->
  <g transform="translate(370,0)">
    <path d="M35,-3 L74,100 H57 L48,76 H21 L12,100 H-5 Z M34.5,20 L24,60 H45 Z" fill="#1A2A4B" fill-rule="evenodd"/>
    <polygon points="35,44 43,66 27,66" fill="#759E7B"/>
  </g>
  
  </g>
  <g>
    <line x1="130" y1="568.0" x2="192" y2="568.0" stroke="#759E7B" stroke-width="1.5"/>
    <text x="450" y="574.0" text-anchor="middle" font-family="Arial, Helvetica, sans-serif" font-size="19" letter-spacing="3" fill="#759E7B">YOUR COMPASS TO THE SYRIAN MARKET</text>
    <line x1="708" y1="568.0" x2="770" y2="568.0" stroke="#759E7B" stroke-width="1.5"/>
  </g>
</svg>